<?xml version="1.0" standalone="no"?>
<!DOCTYPE svg PUBLIC "-//W3C//DTD SVG 20010904//EN"
 "http://www.w3.org/TR/2001/REC-SVG-20010904/DTD/svg10.dtd">
<svg version="1.0" xmlns="http://www.w3.org/2000/svg"
 width="300.000000pt" height="300.000000pt" viewBox="0 0 300.000000 300.000000"
 preserveAspectRatio="xMidYMid meet">
<metadata>
Created by potrace 1.10, written by Peter Selinger 2001-2011
</metadata>
<g transform="translate(0.000000,300.000000) scale(0.100000,-0.100000)"
fill="#000000" stroke="none">
<path d="M830 2815 c0 -106 2 -124 15 -119 18 7 19 16 3 32 -9 9 -8 12 5 12 9
0 24 -11 33 -26 12 -18 24 -24 42 -22 14 2 27 8 29 15 3 7 -3 10 -15 6 -13 -3
-25 3 -35 17 -14 20 -13 23 9 45 23 23 31 55 18 68 -11 11 -43 -12 -59 -43
-19 -38 -19 -54 1 -17 15 29 34 36 34 14 0 -17 -32 -47 -49 -47 -9 0 -12 24
-9 95 2 71 0 95 -9 95 -10 0 -13 -32 -13 -125z"/>
<path d="M488 2881 c-31 -28 -33 -33 -36 -111 -3 -66 -2 -82 9 -78 10 3 16 29
19 85 5 86 20 116 53 111 34 -5 31 -27 -8 -64 -34 -32 -35 -34 -12 -29 34 9
67 -10 67 -39 0 -27 -22 -48 -70 -69 -21 -9 -28 -16 -17 -16 10 -1 32 5 50 13
75 31 91 102 29 122 -30 9 -32 12 -17 24 28 23 38 50 24 66 -18 22 -56 16 -91
-15z"/>
<path d="M639 2834 c-10 -12 -9 -13 5 -8 14 5 16 -3 16 -65 0 -64 2 -71 20
-71 20 0 50 45 50 75 0 9 5 13 10 10 6 -4 8 -15 5 -26 -15 -45 18 -76 45 -44
11 13 10 14 -4 9 -14 -5 -16 3 -16 65 0 86 -16 88 -45 4 -25 -72 -48 -83 -45
-22 2 24 2 51 1 60 -2 23 -27 31 -42 13z"/>
<path d="M1253 2839 c-9 -9 -8 -17 2 -33 12 -18 11 -26 -4 -54 l-18 -34 -26
62 c-20 44 -32 61 -44 58 -9 -2 -18 -9 -21 -16 -2 -7 2 -11 8 -10 7 2 24 -25
39 -59 14 -35 29 -63 34 -63 13 0 70 127 64 144 -7 19 -19 20 -34 5z"/>
<path d="M1310 2835 c-11 -14 -11 -16 1 -13 11 2 15 -12 17 -64 3 -59 5 -68
22 -68 11 0 26 12 35 30 19 38 19 64 -1 28 -23 -43 -33 -34 -36 34 -3 63 -15
80 -38 53z"/>
<path d="M1423 2842 c-6 -4 -15 -20 -18 -35 -6 -21 -4 -27 9 -27 9 0 16 -4 16
-10 0 -5 -4 -10 -10 -10 -5 0 -10 -9 -10 -19 0 -48 25 -66 50 -36 11 13 10 14
-3 9 -14 -5 -17 5 -19 65 -2 51 -6 68 -15 63z"/>
<path d="M1022 2833 c-16 -6 -42 -56 -42 -81 0 -11 8 -30 18 -42 14 -18 25
-22 45 -16 35 8 35 22 0 21 -38 0 -54 42 -29 80 16 25 22 27 58 21 36 -6 40
-5 28 9 -12 14 -51 19 -78 8z"/>
<path d="M1094 2792 c-6 -4 -14 -20 -17 -37 -9 -53 24 -85 53 -50 11 13 10 14
-3 9 -13 -5 -16 3 -19 40 -2 30 -7 43 -14 38z"/>
<path d="M1310 2610 c-8 -6 -35 -10 -60 -10 -25 0 -53 -7 -62 -14 -24 -18 -23
-29 1 -16 11 5 29 10 41 10 19 0 20 -2 6 -21 -9 -13 -12 -34 -9 -53 2 -17 0
-50 -5 -73 -6 -24 -7 -43 -3 -43 21 0 31 30 31 91 0 78 6 99 29 99 18 1 57 27
50 34 -3 3 -11 1 -19 -4z"/>
<path d="M312 2593 c-68 -33 -108 -120 -80 -173 11 -19 21 -25 48 -25 31 0 37
5 57 43 l22 44 3 -44 c3 -38 6 -43 27 -43 13 0 26 5 28 12 3 7 -3 9 -18 6 -20
-6 -21 -3 -18 41 6 63 -22 64 -50 1 -22 -49 -52 -60 -71 -26 -25 48 8 122 68
153 19 9 36 19 39 22 12 12 -23 5 -55 -11z"/>
<path d="M448 2500 c-2 -61 -2 -110 -1 -110 21 0 28 16 24 62 -4 62 13 124 38
138 32 17 43 -10 39 -95 -5 -86 5 -112 40 -101 27 9 29 26 2 19 -18 -5 -19 1
-22 93 -3 99 -3 99 -29 102 -19 2 -33 -5 -49 -25 l-23 -28 5 28 c4 18 1 27 -8
27 -9 0 -14 -28 -16 -110z"/>
<path d="M715 2596 c-17 -7 -45 -30 -63 -50 -54 -62 -40 -156 23 -156 25 0 65
42 65 69 0 9 -8 2 -20 -16 -12 -20 -28 -33 -40 -33 -24 0 -40 52 -29 95 10 36
61 85 89 85 11 0 20 5 20 10 0 13 -8 12 -45 -4z"/>
<path d="M866 2579 c-22 -26 -26 -40 -26 -98 0 -37 -4 -71 -9 -76 -6 -6 15
-10 59 -11 62 0 69 2 79 23 11 23 3 31 -14 14 -13 -12 -105 -19 -97 -7 3 5 4
32 3 59 -3 79 24 124 67 110 19 -7 14 -30 -10 -47 -16 -12 -18 -16 -7 -16 9 0
26 11 39 25 19 20 21 27 10 40 -21 26 -65 18 -94 -16z"/>
<path d="M1123 2603 c-9 -3 -13 -28 -13 -78 0 -80 -21 -124 -53 -112 -13 5
-17 24 -19 94 -3 76 -5 88 -22 91 -10 2 -23 -1 -28 -6 -7 -7 -4 -10 8 -9 17 2
19 -7 20 -86 1 -65 5 -91 15 -98 23 -14 39 -10 63 15 l22 25 -6 -50 c-7 -51 2
-63 20 -29 16 29 9 248 -7 243z"/>
<path d="M1346 2601 c-3 -4 -5 -54 -5 -110 1 -80 4 -101 15 -101 11 0 14 22
14 110 0 98 -7 129 -24 101z"/>
<path d="M1478 2594 c-37 -19 -58 -63 -58 -117 0 -52 30 -87 76 -87 31 0 74
24 74 41 0 6 -10 3 -22 -5 -32 -23 -53 -20 -86 12 -28 28 -29 29 -17 77 14 54
38 77 75 73 31 -4 39 -41 14 -69 -9 -10 -12 -19 -6 -19 15 0 52 49 52 69 0 41
-51 53 -102 25z"/>
<path d="M1625 2585 c-14 -13 -25 -33 -25 -43 0 -22 32 -53 78 -76 34 -18 43
-50 16 -60 -18 -7 -50 8 -57 26 -4 10 -7 10 -18 0 -12 -11 -11 -16 6 -28 30
-23 87 -14 101 15 17 34 9 47 -46 77 -57 31 -70 61 -39 87 28 23 36 22 63 -8
20 -21 25 -23 35 -11 10 11 7 17 -11 30 -33 23 -75 20 -103 -9z"/>
<path d="M364 2565 c-4 -8 -4 -21 -1 -29 3 -8 1 -17 -6 -20 -7 -2 -5 -5 4 -5
12 -1 18 9 21 34 4 35 -8 48 -18 20z"/>
<path d="M755 2568 c-2 -7 -6 -30 -10 -50 -5 -30 -3 -38 10 -38 8 0 15 -5 15
-11 0 -5 -4 -7 -10 -4 -6 4 -10 -8 -10 -30 0 -38 17 -53 48 -40 16 8 16 8 0
12 -15 4 -18 17 -18 89 0 51 -4 84 -10 84 -6 0 -12 -6 -15 -12z"/>
<path d="M1747 2403 c-10 -3 -16 -10 -14 -16 3 -9 51 -12 166 -12 l162 0 4
-105 c1 -58 7 -133 12 -168 l9 -62 -190 2 -190 3 -2 60 c0 33 -2 106 -2 163
-1 60 -6 102 -12 102 -6 0 -10 -67 -10 -180 l0 -181 201 1 201 2 2 -93 c1 -64
5 -94 14 -96 9 -4 12 34 12 166 0 145 -2 171 -15 171 -13 0 -15 21 -15 125 l0
125 -157 -1 c-87 -1 -166 -3 -176 -6z"/>
<path d="M1035 2350 c-3 -5 3 -10 15 -10 12 0 18 5 15 10 -3 6 -10 10 -15 10
-5 0 -12 -4 -15 -10z"/>
<path d="M1750 1383 l0 -558 130 0 130 0 0 558 0 557 -130 0 -130 0 0 -557z
m242 27 c-1 -278 -2 -520 -2 -537 l0 -33 -110 0 -110 0 0 540 0 541 112 -3
113 -3 -3 -505z"/>
<path d="M2151 1854 c0 -11 3 -14 6 -6 3 7 2 16 -1 19 -3 4 -6 -2 -5 -13z"/>
<path d="M1270 1298 l0 -473 130 0 130 0 0 473 0 472 -130 0 -130 0 0 -472z
m240 2 l0 -450 -105 0 -105 0 0 450 0 450 105 0 105 0 0 -450z"/>
<path d="M1602 1223 c3 -370 4 -398 21 -401 16 -3 17 21 17 397 0 395 0 401
-20 401 -20 0 -20 -5 -18 -397z"/>
<path d="M794 1020 l1 -191 128 -2 127 -2 0 193 0 192 -129 0 -128 0 1 -190z
m228 -7 l0 -158 -101 -3 -101 -3 -1 118 c-1 65 -2 138 -2 163 l-1 45 94 5 c52
3 99 2 104 -2 5 -4 9 -78 8 -165z"/>
<path d="M1125 984 l1 -156 37 -3 37 -2 0 159 0 158 -37 0 -38 0 0 -156z m54
49 c2 -92 -8 -185 -19 -178 -5 3 -9 62 -9 130 0 96 3 125 13 125 10 0 14 -22
15 -77z"/>
</g>
</svg>
