<?xml version="1.0" standalone="no"?>
<!DOCTYPE svg PUBLIC "-//W3C//DTD SVG 20010904//EN"
 "http://www.w3.org/TR/2001/REC-SVG-20010904/DTD/svg10.dtd">
<svg version="1.0" xmlns="http://www.w3.org/2000/svg"
 width="450.000000pt" height="450.000000pt" viewBox="0 0 450.000000 450.000000"
 preserveAspectRatio="xMidYMid meet">
<metadata>
Created by potrace 1.10, written by Peter Selinger 2001-2011
</metadata>
<g transform="translate(0.000000,450.000000) scale(0.100000,-0.100000)"
fill="#38761d" stroke="none">
<path d="M1240 4236 c0 -165 1 -174 20 -179 15 -4 20 0 20 13 0 10 -6 20 -12
22 -8 3 -5 9 8 16 19 10 25 7 49 -28 15 -21 34 -41 43 -43 22 -4 72 12 72 25
0 5 -9 6 -21 3 -13 -4 -28 0 -41 11 -40 37 -40 50 -3 87 25 25 35 44 35 66 0
72 -71 39 -107 -50 l-22 -54 -1 143 c0 135 -1 142 -20 142 -19 0 -20 -7 -20
-174z m130 -34 c0 -20 -56 -79 -66 -70 -3 3 4 24 16 47 21 42 50 55 50 23z"/>
<path d="M765 4350 c-27 -11 -61 -49 -74 -83 -12 -32 -15 -227 -3 -227 24 1
30 23 34 127 2 95 6 116 24 140 15 19 30 28 50 28 24 0 30 -4 32 -29 4 -31
-21 -65 -73 -98 l-30 -19 42 6 c61 10 103 -15 103 -59 0 -46 -24 -72 -95 -101
-57 -23 -58 -25 -25 -25 43 0 107 29 137 62 56 60 28 138 -50 138 l-41 0 42
40 c43 41 53 75 30 98 -14 14 -73 15 -103 2z"/>
<path d="M1876 4255 c-9 -14 -12 -25 -7 -25 6 0 15 -9 21 -21 9 -16 7 -32 -11
-75 -24 -57 -33 -65 -42 -36 -13 42 -60 148 -71 159 -9 10 -16 10 -34 -3 -21
-14 -33 -42 -12 -29 12 8 38 -33 75 -119 17 -38 35 -71 41 -73 13 -4 94 165
94 198 0 24 -16 49 -31 49 -4 0 -14 -11 -23 -25z"/>
<path d="M954 4249 c-18 -20 -18 -20 9 -14 l27 7 0 -100 c0 -83 3 -101 16
-106 31 -12 63 21 81 84 10 33 22 60 26 60 5 0 5 -5 2 -10 -3 -6 1 -13 9 -16
9 -3 16 -10 16 -16 0 -5 -4 -7 -9 -4 -13 8 -18 -14 -11 -54 6 -40 37 -52 64
-24 20 20 13 32 -9 14 -22 -18 -27 3 -23 109 2 50 0 91 -3 91 -19 0 -41 -33
-54 -83 -8 -32 -22 -72 -31 -88 -26 -50 -38 -31 -36 58 2 63 -2 85 -14 97 -21
21 -37 20 -60 -5z"/>
<path d="M1968 4259 c-25 -14 -23 -32 2 -24 17 6 20 2 20 -29 0 -24 5 -36 18
-39 16 -4 16 -5 0 -6 -15 -1 -18 -11 -18 -55 0 -67 17 -87 56 -61 26 17 54 70
54 102 -1 10 -11 -2 -23 -26 -36 -74 -47 -65 -47 36 0 107 -14 130 -62 102z"/>
<path d="M2128 4258 c-22 -17 -35 -84 -16 -85 7 0 21 -4 31 -8 15 -6 17 -1 17
49 0 58 -5 65 -32 44z"/>
<path d="M1521 4234 c-64 -54 -65 -168 0 -194 27 -11 33 -11 57 7 37 27 41 46
6 28 -36 -18 -65 -2 -76 43 -19 71 46 141 98 107 22 -14 54 -11 54 6 0 14 -37
29 -74 29 -22 0 -45 -9 -65 -26z"/>
<path d="M1638 4188 c-37 -30 -22 -148 20 -148 20 0 42 18 42 34 0 6 -5 5 -12
-2 -22 -22 -27 -12 -30 58 -3 64 -5 70 -20 58z"/>
<path d="M2120 4110 c0 -21 3 -45 6 -54 11 -29 74 -14 74 18 0 6 -5 5 -12 -2
-20 -20 -27 -14 -30 30 -2 30 -8 42 -20 44 -15 2 -18 -5 -18 -36z"/>
<path d="M688 3912 c-16 -3 -18 -19 -18 -168 0 -162 0 -165 20 -154 18 10 20
21 20 108 0 81 4 105 23 142 17 34 28 46 49 48 35 4 37 -7 41 -162 2 -96 5
-121 18 -129 18 -11 69 -2 69 13 0 6 -11 8 -25 4 l-25 -6 0 136 c0 123 -2 138
-20 156 -11 11 -29 20 -39 20 -25 0 -81 -46 -83 -68 0 -10 -4 1 -7 23 -5 32
-10 40 -23 37z"/>
<path d="M1345 3906 c-16 -7 -41 -26 -55 -40 -23 -25 -25 -38 -30 -135 -3 -61
-10 -114 -17 -122 -10 -12 -1 -14 60 -14 40 0 84 -3 99 -8 23 -6 29 -3 42 25
22 44 20 51 -9 32 -19 -12 -37 -15 -71 -10 -26 3 -54 1 -66 -5 -18 -9 -18 -8
-9 10 16 29 13 49 -6 54 -17 4 -17 5 0 6 15 1 17 12 17 76 0 62 4 79 20 95 17
17 80 29 80 16 0 -2 3 -11 6 -20 4 -10 -6 -27 -27 -47 -32 -30 -32 -31 -9 -24
33 10 80 54 80 76 0 20 -36 49 -60 49 -8 -1 -28 -7 -45 -14z"/>
<path d="M1950 3910 c-14 -4 -51 -8 -82 -9 -45 -1 -62 -6 -88 -27 -37 -32 -34
-40 6 -19 32 16 84 20 84 6 0 -5 -7 -14 -15 -21 -11 -10 -15 -36 -15 -112 0
-55 -5 -108 -11 -120 -16 -29 -2 -35 23 -10 19 19 22 35 25 124 5 136 8 148
38 148 13 0 37 11 52 25 29 25 25 29 -17 15z"/>
<path d="M2038 3908 c-14 -11 -17 -36 -20 -170 -3 -154 -2 -158 17 -152 11 4
21 8 23 9 1 1 1 75 0 164 -3 151 -4 161 -20 149z"/>
<path d="M2258 3910 c-78 -23 -129 -97 -129 -185 0 -68 22 -112 67 -131 46
-19 93 -10 135 27 35 29 21 41 -15 14 -31 -23 -83 -19 -111 10 -14 13 -25 29
-25 35 0 5 -9 10 -20 10 -11 0 -20 5 -20 11 0 6 7 9 15 5 12 -4 15 4 15 39 0
24 4 55 10 70 14 38 59 75 90 75 54 0 80 -69 40 -105 -28 -25 -25 -39 4 -20
32 21 59 80 52 111 -4 14 -18 29 -32 34 -29 11 -39 11 -76 0z"/>
<path d="M2472 3909 c-36 -11 -72 -59 -72 -96 0 -32 37 -70 105 -106 53 -28
60 -36 60 -62 0 -24 -5 -31 -24 -33 -38 -6 -66 6 -81 33 -14 26 -14 26 -34 6
-16 -16 -17 -23 -7 -35 35 -42 137 -44 166 -3 36 51 2 123 -53 111 -19 -4 -23
-3 -13 4 11 8 8 13 -17 26 -46 24 -62 44 -62 80 0 43 19 58 66 54 30 -2 43
-10 60 -36 l22 -33 16 23 c19 26 7 44 -41 65 -37 15 -45 15 -91 2z"/>
<path d="M475 3891 c-115 -53 -178 -211 -114 -280 45 -48 114 -30 141 36 39
94 37 93 37 21 1 -57 4 -69 22 -78 16 -9 26 -8 45 5 29 18 33 41 4 23 -10 -7
-21 -10 -24 -7 -3 3 -6 35 -8 72 -2 63 -4 67 -25 67 -19 0 -28 -10 -44 -47
-53 -123 -129 -122 -129 2 0 85 64 166 143 182 15 3 30 10 33 14 9 15 -39 9
-81 -10z"/>
<path d="M1077 3896 c-91 -33 -147 -113 -147 -209 0 -80 49 -122 110 -97 35
14 55 42 70 100 8 28 14 39 19 31 5 -7 11 -12 15 -12 3 1 5 -2 4 -6 -2 -5 -7
-7 -11 -5 -4 1 -7 -21 -5 -50 3 -50 5 -53 31 -56 29 -4 57 12 57 31 0 7 -4 7
-12 -1 -32 -32 -38 -14 -38 118 0 72 -3 130 -7 130 -21 -1 -31 -21 -42 -84
-13 -74 -31 -118 -64 -153 -25 -28 -41 -29 -67 -3 -27 27 -27 100 1 158 22 45
95 102 130 102 10 0 21 5 24 10 9 14 -23 12 -68 -4z"/>
<path d="M1488 3891 l-23 -19 28 5 27 5 0 -124 c0 -96 4 -129 16 -146 27 -39
91 -25 118 26 15 26 15 25 16 -35 0 -43 -5 -66 -16 -77 -14 -15 -14 -16 5 -16
41 0 51 45 51 229 0 161 -1 169 -19 164 -17 -4 -19 -17 -23 -113 -3 -90 -7
-114 -24 -136 -59 -79 -78 -58 -82 94 -4 134 -4 137 -31 151 -15 8 -24 7 -43
-8z m212 -201 c0 -5 -7 -10 -15 -10 -8 0 -15 5 -15 10 0 6 7 10 15 10 8 0 15
-4 15 -10z"/>
<path d="M553 3862 c-6 -4 -14 -28 -18 -54 -7 -44 -5 -48 13 -48 22 0 32 24
32 78 0 32 -6 38 -27 24z"/>
<path d="M2617 3603 c-20 -19 13 -23 236 -25 l242 -3 3 -163 c2 -148 4 -165
22 -185 18 -18 20 -33 18 -97 l-3 -75 -292 -3 -293 -2 -1 72 c-1 40 -3 147 -4
238 -3 204 -3 200 -15 200 -6 0 -10 -97 -10 -270 l0 -270 305 0 305 0 0 -140
c0 -127 2 -140 18 -140 16 0 17 18 15 247 -2 243 -3 248 -23 251 -21 3 -21 7
-17 188 l4 184 -252 0 c-138 0 -255 -3 -258 -7z"/>
<path d="M1550 3525 c-11 -13 -7 -15 26 -15 35 0 37 1 18 15 -24 18 -29 18
-44 0z"/>
<path d="M2630 2075 l0 -835 190 0 190 0 0 835 0 835 -190 0 -190 0 0 -835z
m363 801 c10 -25 7 -1590 -3 -1606 -8 -12 -38 -15 -169 -15 -88 0 -162 3 -165
6 -8 8 -9 1607 -1 1620 4 5 78 9 170 9 129 0 164 -3 168 -14z"/>
<path d="M1910 1948 l0 -708 193 0 192 0 -2 706 -3 705 -190 2 -190 2 0 -707z
m348 0 l-3 -673 -144 -3 c-96 -2 -148 1 -157 9 -11 9 -14 123 -14 669 0 361 3
660 7 664 3 3 75 6 160 6 l153 0 -2 -672z"/>
<path d="M2410 1835 l0 -595 25 0 25 0 0 595 0 595 -25 0 -25 0 0 -595z"/>
<path d="M1190 1525 l0 -285 193 0 192 0 0 285 0 285 -192 0 -193 0 0 -285z
m352 242 c4 -7 7 -121 7 -254 l0 -243 -30 0 c-16 -1 -78 -1 -139 -1 -60 0
-121 0 -135 1 l-25 0 0 254 0 255 28 3 c66 8 287 -4 294 -15z"/>
<path d="M1690 1475 l0 -235 53 0 52 0 0 235 0 235 -52 0 -53 0 0 -235z m80 0
l0 -205 -25 0 -24 0 -3 178 c-4 227 -3 232 28 232 l24 0 0 -205z"/>
</g>
</svg>
